<svg xmlns="http://www.w3.org/2000/svg" viewBox="0 0 100 100" fill="none" shape-rendering="auto" aria-hidden="true"><!-- Generated by DiceBear (https://www.dicebear.com) --><metadata xmlns:rdf="http://www.w3.org/1999/02/22-rdf-syntax-ns#" xmlns:xsi="http://www.w3.org/2001/XMLSchema-instance" xmlns:dc="http://purl.org/dc/elements/1.1/" xmlns:dcterms="http://purl.org/dc/terms/"><rdf:RDF><rdf:Description><dc:title>Critters</dc:title><dc:creator>DiceBear</dc:creator><dc:source xsi:type="dcterms:URI">https://www.dicebear.com</dc:source><dcterms:license xsi:type="dcterms:URI">https://creativecommons.org/publicdomain/zero/1.0/</dcterms:license><dc:rights>“Critters” (https://www.dicebear.com) by “DiceBear”, licensed under “CC0 1.0” (https://creativecommons.org/publicdomain/zero/1.0/)</dc:rights></rdf:Description></rdf:RDF></metadata><defs><g id="top-earsPointy-cff9e5c7"><g opacity=".15" transform="translate(-23 -6.5)"><path d="M33 50V38l-2-26 16 24v14Zm34 0V38l2-26-16 24v14Z" fill="#1e293b"/></g><path d="M7 40V28L5 2l16 24v14Zm34 0V28l2-26-16 24v14Z" fill="#e2e8f0"/></g><clipPath id="dbcrb-squat"><path d="M8 106V70c0-24 16-36 42-36s42 12 42 36v36Z"/></clipPath><g id="body-squat-cff9e5c7"><g class="dbcr-t"><use transform="translate(26 10)" href="#top-earsPointy-cff9e5c7"/></g><path d="M11 109.5v-36c0-24 16-36 42-36s42 12 42 36v36Z" fill="#1e293b" opacity=".15"/><path d="M8 106V70c0-24 16-36 42-36s42 12 42 36v36Z" fill="#fdba74"/><g clip-path="url(#dbcrb-squat)"><path d="M8 106V70c0-24 16-36 42-36s42 12 42 36v36Zm3.5 4.5v-36c0-24 16-36 42-36s42 12 42 36v36Z" fill="#ffffff" opacity=".16" fill-rule="evenodd"/><path d="M8 106V70c0-24 16-36 42-36s42 12 42 36v36Zm-3.5-4.5v-36c0-24 16-36 42-36s42 12 42 36v36Z" fill="#1e293b" opacity=".1" fill-rule="evenodd"/></g></g><g id="pattern-bars-cff9e5c7"><rect x="2" y="2" width="28" height="7" rx="3.5" fill="#ffffff" opacity=".18"/><rect x="2" y="13" width="28" height="7" rx="3.5" fill="#ffffff" opacity=".18"/></g><g id="eyes-bigPupils-cff9e5c7"><g class="dbcr-eb"><circle cx="10" cy="13" r="7" fill="#ffffff"/><circle cx="10" cy="13" r="5" fill="#1e293b"/></g><g class="dbcr-eb"><circle cx="36" cy="13" r="7" fill="#ffffff"/><circle cx="36" cy="13" r="5" fill="#1e293b"/></g></g><g id="mouth-zigzag-cff9e5c7"><path d="m2 4 4 6 4-6 4 6 4-6 4 6 4-6" stroke="#1e293b" stroke-width="3" stroke-linecap="round" stroke-linejoin="round"/></g><g id="animation-none-cff9e5c7"></g><clipPath id="clip-cff9e5c7"><rect width="100" height="100" rx="0" ry="0"/></clipPath></defs><g clip-path="url(#clip-cff9e5c7)"><rect width="100" height="100" fill="#1e293b"/><g class="dbcr-c"><use href="#body-squat-cff9e5c7"/><use transform="translate(34 75)" href="#pattern-bars-cff9e5c7"/><use transform="translate(27 36)" href="#eyes-bigPupils-cff9e5c7"/><use transform="translate(36 60)" href="#mouth-zigzag-cff9e5c7"/></g><use href="#animation-none-cff9e5c7"/></g></svg>