<svg xmlns="http://www.w3.org/2000/svg" viewBox="0 0 100 100" fill="none" shape-rendering="auto" aria-hidden="true"><!-- Generated by DiceBear (https://www.dicebear.com) --><metadata xmlns:rdf="http://www.w3.org/1999/02/22-rdf-syntax-ns#" xmlns:xsi="http://www.w3.org/2001/XMLSchema-instance" xmlns:dc="http://purl.org/dc/elements/1.1/" xmlns:dcterms="http://purl.org/dc/terms/"><rdf:RDF><rdf:Description><dc:title>Critters</dc:title><dc:creator>DiceBear</dc:creator><dc:source xsi:type="dcterms:URI">https://www.dicebear.com</dc:source><dcterms:license xsi:type="dcterms:URI">https://creativecommons.org/publicdomain/zero/1.0/</dcterms:license><dc:rights>“Critters” (https://www.dicebear.com) by “DiceBear”, licensed under “CC0 1.0” (https://creativecommons.org/publicdomain/zero/1.0/)</dc:rights></rdf:Description></rdf:RDF></metadata><defs><g id="top-earsDroop-b969e93a"><g opacity=".15" transform="translate(-23 -6.5)"><ellipse cx="36" cy="32" rx="5.5" ry="16" transform="rotate(-16 36 32)" fill="#1e293b"/><ellipse cx="64" cy="32" rx="5.5" ry="16" transform="rotate(16 64 32)" fill="#1e293b"/></g><ellipse cx="36" cy="32" rx="5.5" ry="16" transform="rotate(-16 -12.577 119.5)" fill="#5eead4"/><ellipse cx="64" cy="32" rx="5.5" ry="16" transform="rotate(16 86.577 -65.5)" fill="#5eead4"/></g><clipPath id="dbcrb-steps"><path d="M14 106V52q0-8 8-8h8V34q0-8 8-8h24q8 0 8 8v10h8q8 0 8 8v54Z"/></clipPath><g id="body-steps-b969e93a"><g class="dbcr-t"><use transform="translate(26 3.5)" href="#top-earsDroop-b969e93a"/></g><path d="M17 109.5v-54q0-8 8-8h8v-10q0-8 8-8h24q8 0 8 8v10h8q8 0 8 8v54Z" fill="#1e293b" opacity=".15"/><path d="M14 106V52q0-8 8-8h8V34q0-8 8-8h24q8 0 8 8v10h8q8 0 8 8v54Z" fill="#bef264"/><g clip-path="url(#dbcrb-steps)"><path d="M14 106V52q0-8 8-8h8V34q0-8 8-8h24q8 0 8 8v10h8q8 0 8 8v54Zm3.5 4.5v-54q0-8 8-8h8v-10q0-8 8-8h24q8 0 8 8v10h8q8 0 8 8v54Z" fill="#ffffff" opacity=".16" fill-rule="evenodd"/><path d="M14 106V52q0-8 8-8h8V34q0-8 8-8h24q8 0 8 8v10h8q8 0 8 8v54Zm-3.5-4.5v-54q0-8 8-8h8v-10q0-8 8-8h24q8 0 8 8v10h8q8 0 8 8v54Z" fill="#1e293b" opacity=".1" fill-rule="evenodd"/></g></g><g id="pattern-bar-b969e93a"><rect x="2" y="3" width="28" height="8" rx="4" fill="#ffffff" opacity=".18"/></g><g id="eyes-mono-b969e93a"><g class="dbcr-eb"><circle cx="23" cy="11" r="11" fill="#ffffff"/><circle cx="23" cy="11" r="4.5" fill="#1e293b"/></g></g><g id="mouth-blep-b969e93a"><path d="M7 6h14" stroke="#1e293b" stroke-width="3.5" stroke-linecap="round" stroke-linejoin="round"/><path d="M10 6a4 4 0 0 0 8 0Z" fill="#fb7185"/></g><g id="animation-none-b969e93a"></g><clipPath id="clip-b969e93a"><rect width="100" height="100" rx="0" ry="0"/></clipPath></defs><g clip-path="url(#clip-b969e93a)"><rect width="100" height="100" fill="#c2410c"/><g class="dbcr-c"><use href="#body-steps-b969e93a"/><use transform="translate(34 75)" href="#pattern-bar-b969e93a"/><use transform="translate(27 36)" href="#eyes-mono-b969e93a"/><use transform="translate(36 60)" href="#mouth-blep-b969e93a"/></g><use href="#animation-none-b969e93a"/></g></svg>